<?xml version="1.0" encoding="utf-8"?>
<!-- Generator: Adobe Illustrator 16.0.0, SVG Export Plug-In . SVG Version: 6.00 Build 0)  -->
<!DOCTYPE svg PUBLIC "-//W3C//DTD SVG 1.1//EN" "http://www.w3.org/Graphics/SVG/1.1/DTD/svg11.dtd">
<svg version="1.1" id="Layer_1" xmlns="http://www.w3.org/2000/svg" xmlns:xlink="http://www.w3.org/1999/xlink" x="0px" y="0px"
	 width="391.75px" height="391.753px" viewBox="0 0 391.75 391.753" enable-background="new 0 0 391.75 391.753"
	 xml:space="preserve">
<path fill="#3B5024" d="M27.339,187.194c0.146-2.876,0.363-5.734,0.651-8.57s0.646-5.652,1.073-8.445l3.369-16.475
	c0.694-2.696,1.452-5.366,2.274-8.008s1.707-5.256,2.653-7.841c0.946-2.585,1.954-5.14,3.021-7.664s2.194-5.016,3.379-7.475
	l7.79-14.343c1.41-2.32,2.873-4.603,4.389-6.847c1.517-2.244,3.085-4.45,4.705-6.616c1.62-2.166,3.29-4.292,5.01-6.375
	l10.892-11.984c1.909-1.909,3.863-3.771,5.861-5.587s4.04-3.585,6.123-5.304s4.209-3.39,6.375-5.01
	c2.166-1.62,4.372-3.189,6.617-4.705l13.914-8.453c2.391-1.299,4.817-2.542,7.276-3.727c2.459-1.185,4.952-2.312,7.475-3.379
	s5.079-2.075,7.664-3.021l15.849-4.927c2.696-0.694,5.418-1.322,8.165-1.884s5.517-1.057,8.31-1.484
	c2.793-0.427,5.609-0.785,8.446-1.073l17.254-0.871c2.912,0,5.808,0.074,8.684,0.22c2.877,0.146,5.734,0.364,8.57,0.651
	c2.837,0.288,5.652,0.646,8.446,1.073l16.474,3.368c2.696,0.694,5.366,1.452,8.008,2.274c2.643,0.822,5.257,1.707,7.842,2.653
	c2.584,0.946,5.139,1.954,7.663,3.021s5.017,2.194,7.476,3.379l14.344,7.79c2.319,1.41,4.602,2.874,6.847,4.39
	s4.45,3.085,6.616,4.705s4.291,3.291,6.375,5.01l11.983,10.892c1.909,1.909,3.771,3.863,5.588,5.86
	c1.815,1.998,3.584,4.04,5.304,6.124c1.72,2.083,3.391,4.209,5.01,6.375s3.188,4.372,4.705,6.616l8.452,13.914
	c1.3,2.391,2.542,4.817,3.728,7.276c1.185,2.459,2.312,4.951,3.379,7.475s2.075,5.079,3.021,7.664l4.928,15.849
	c0.693,2.696,1.322,5.418,1.884,8.165s1.058,5.517,1.484,8.311c0.427,2.793,0.785,5.609,1.073,8.445l0.871,17.254
	c0,2.912-0.074,5.808-0.22,8.684c-0.146,2.877-0.363,5.734-0.651,8.57c-0.288,2.837-0.646,5.652-1.073,8.446l-3.368,16.474
	c-0.694,2.696-1.453,5.366-2.274,8.008c-0.821,2.643-1.707,5.257-2.653,7.842c-0.946,2.584-1.954,5.139-3.021,7.663
	s-2.194,5.017-3.379,7.476l-7.791,14.344c-1.409,2.319-2.873,4.602-4.389,6.847c-1.517,2.245-3.086,4.45-4.705,6.616
	s-3.29,4.291-5.01,6.375l-10.892,11.983c-1.909,1.909-3.862,3.771-5.86,5.588c-1.998,1.815-4.039,3.584-6.123,5.304
	s-4.209,3.391-6.375,5.01s-4.371,3.188-6.616,4.705l-13.914,8.452c-2.392,1.3-4.817,2.542-7.276,3.728
	c-2.459,1.185-4.951,2.312-7.476,3.379s-5.079,2.075-7.663,3.021l-15.85,4.928c-2.695,0.693-5.418,1.322-8.164,1.884
	s-5.517,1.058-8.31,1.484c-2.794,0.427-5.609,0.785-8.446,1.073l-17.254,0.871c-2.913,0-5.808-0.074-8.684-0.22
	s-5.733-0.363-8.57-0.651c-2.837-0.288-5.652-0.646-8.446-1.073l-16.475-3.368c-2.696-0.694-5.366-1.453-8.008-2.274
	s-5.256-1.707-7.841-2.653c-2.585-0.946-5.14-1.954-7.664-3.021s-5.016-2.194-7.475-3.379l-14.343-7.791
	c-2.319-1.409-4.603-2.873-6.847-4.389c-2.245-1.517-4.451-3.086-6.617-4.705l-12.498-10.313c-1.998-1.816-3.952-3.679-5.861-5.588
	s-3.772-3.862-5.588-5.86c-1.815-1.998-3.584-4.039-5.304-6.123s-3.39-4.209-5.01-6.375c-1.62-2.166-3.188-4.371-4.705-6.616
	l-8.453-13.914c-1.299-2.392-2.542-4.817-3.727-7.276s-2.312-4.951-3.379-7.476l-5.675-15.505c-0.822-2.642-1.58-5.312-2.274-8.008
	c-0.694-2.695-1.322-5.418-1.884-8.164s-1.058-5.517-1.484-8.31c-0.427-2.794-0.785-5.609-1.073-8.446
	c-0.288-2.836-0.506-5.693-0.651-8.57V187.194z"/>
</svg>
